# xmcd
#
# Track frame offsets: 
#        182
#        14875
#        32482
#        63907
#        79845
#        99950
#        123387
#        143152
#        157397
#        171107
#        199462
#
# Disc length: 2991 seconds
#
# Revision: 4
# Processed by: cddbd v1.5.2PL0 Copyright (c) Steve Scherf et al.
# Submitted via: ExactAudioCopy v0.99pb4
#
DISCID=990bad0b
DTITLE=Buddy Guy - Slippin' In
DYEAR=1994
DGENRE=Blues
TTITLE0=I Smell Trouble
TTITLE1=Please Don't Drive Me Away
TTITLE2=7-11
TTITLE3=Shame, Shame, Shame
TTITLE4=Love Her With A Feeling
TTITLE5=Little Dab-A-Doo
TTITLE6=Someone Else Is Steppin' In
TTITLE7=Trouble Blues
TTITLE8=Man Of Many Words
TTITLE9=Don't Tell Me About The Blues
TTITLE10=Cities Need Help
EXTD=YEAR: 1994
EXTT0=
EXTT1=
EXTT2=
EXTT3=
EXTT4=
EXTT5=
EXTT6=
EXTT7=
EXTT8=
EXTT9=
EXTT10=
PLAYORDER=
